<?xml version="1.0" encoding="utf-8"?>
<!-- Generator: Adobe Illustrator 15.0.0, SVG Export Plug-In . SVG Version: 6.00 Build 0)  -->
<!DOCTYPE svg PUBLIC "-//W3C//DTD SVG 1.1//EN" "http://www.w3.org/Graphics/SVG/1.1/DTD/svg11.dtd">
<svg version="1.1" id="Layer_1" xmlns="http://www.w3.org/2000/svg" xmlns:xlink="http://www.w3.org/1999/xlink" x="0px" y="0px"
	 width="1920px" height="600px" viewBox="0 0 1920 600" enable-background="new 0 0 1920 600" xml:space="preserve">
<path fill="#0AABD8" d="M0,388.54l149.667-41.052c10.616-2.906,21.648-5.141,32.896-6.708c15.824-2.206,32.073-3.098,48.184-2.688
	c32.126,0.813,63.701,6.791,90.254,17.789l53,21.713c61.667,25.36,147.667,23.536,206-4.197l66.667-31.929
	c45.332-21.715,108.666-28.101,165-16.423l72.666,14.961c47.667,9.854,101,6.935,143.999-7.845l85-29.192
	c53.002-18.063,120.337-18.063,173.334,0l50.333,17.151c61.001,20.982,140.001,17.516,194.334-8.575l66.001-31.566
	c49.998-23.902,121.332-29.01,181-12.772L1920,306.069v213.476L0,519.179V388.54z"/>
</svg>
