<?xml version="1.0" encoding="utf-8"?>
<!-- Generator: Adobe Illustrator 18.1.1, SVG Export Plug-In . SVG Version: 6.00 Build 0)  -->
<svg version="1.1" id="Layer_1" xmlns="http://www.w3.org/2000/svg" xmlns:xlink="http://www.w3.org/1999/xlink" x="0px" y="0px"
	 viewBox="0 0 576 143.4" enable-background="new 0 0 576 143.4" xml:space="preserve" preserveAspectRatio="none">
<path fill="#712FE6" d="M0,71.6l44.9-22.5c16.6-8.3,36.6-6.6,51.4,4.6l15.9,11.9c18.5,13.9,44.3,12.9,61.8-2.3l20-17.5
	c13.6-11.9,32.6-15.4,49.5-9l21.8,8.2c14.3,5.4,30.3,3.8,43.2-4.3L334,24.7c15.9-9.9,36.1-9.9,52,0l15.1,9.4
	c18.3,11.5,42,9.6,58.3-4.7l19.8-17.3c15-13.1,36.4-15.9,54.3-7L576,26.4v117L0,143.2V71.6z"/>
<g>
	<defs>
		<path id="SVGID_1_" d="M0,71.6l44.9-22.5c16.6-8.3,36.6-6.6,51.4,4.6l15.9,11.9c18.5,13.9,44.3,12.9,61.8-2.3l20-17.5
			c13.6-11.9,32.6-15.4,49.5-9l21.8,8.2c14.3,5.4,30.3,3.8,43.2-4.3L334,24.7c15.9-9.9,36.1-9.9,52,0l15.1,9.4
			c18.3,11.5,42,9.6,58.3-4.7l19.8-17.3c15-13.1,36.4-15.9,54.3-7L576,26.4v117L0,143.2V71.6z"/>
	</defs>
	<clipPath id="SVGID_2_">
		<use xlink:href="#SVGID_1_"  overflow="visible"/>
	</clipPath>
	<g clip-path="url(#SVGID_2_)">
		<rect x="71.6" y="-60.5" fill="#803FF4" width="0.7" height="2.5"/>
		<rect x="71.6" y="7.3" fill="#803FF4" width="0.7" height="5"/>
		<rect x="71.6" y="0.3" fill="#803FF4" width="0.7" height="5"/>
		<rect x="71.6" y="14.3" fill="#803FF4" width="0.7" height="5"/>
		<rect x="71.6" y="-6.8" fill="#803FF4" width="0.7" height="5"/>
		<rect x="71.6" y="35.4" fill="#803FF4" width="0.7" height="5"/>
		<rect x="71.6" y="21.4" fill="#803FF4" width="0.7" height="5"/>
		<rect x="71.6" y="28.4" fill="#803FF4" width="0.7" height="5"/>
		<rect x="71.6" y="-34.9" fill="#803FF4" width="0.7" height="5"/>
		<rect x="71.6" y="-41.9" fill="#803FF4" width="0.7" height="5"/>
		<rect x="71.6" y="-13.8" fill="#803FF4" width="0.7" height="5"/>
		<rect x="71.6" y="-49" fill="#803FF4" width="0.7" height="5"/>
		<rect x="71.6" y="-27.9" fill="#803FF4" width="0.7" height="5"/>
		<rect x="71.6" y="-20.8" fill="#803FF4" width="0.7" height="5"/>
		<rect x="71.6" y="-56" fill="#803FF4" width="0.7" height="5"/>
		<rect x="71.6" y="91.7" fill="#803FF4" width="0.7" height="5"/>
		<rect x="71.6" y="105.8" fill="#803FF4" width="0.7" height="5"/>
		<rect x="71.6" y="98.7" fill="#803FF4" width="0.7" height="5"/>
		<rect x="71.6" y="112.8" fill="#803FF4" width="0.7" height="5"/>
		<rect x="71.6" y="42.5" fill="#803FF4" width="0.7" height="5"/>
		<rect x="71.6" y="119.8" fill="#803FF4" width="0.7" height="5"/>
		<rect x="71.6" y="126.9" fill="#803FF4" width="0.7" height="5"/>
		<rect x="71.6" y="133.9" fill="#803FF4" width="0.7" height="5"/>
		<rect x="71.6" y="56.5" fill="#803FF4" width="0.7" height="5"/>
		<rect x="71.6" y="49.5" fill="#803FF4" width="0.7" height="5"/>
		<rect x="71.6" y="63.6" fill="#803FF4" width="0.7" height="5"/>
		<rect x="71.6" y="70.6" fill="#803FF4" width="0.7" height="5"/>
		<rect x="71.6" y="84.7" fill="#803FF4" width="0.7" height="5"/>
		<rect x="71.6" y="77.6" fill="#803FF4" width="0.7" height="5"/>
		<rect x="71.6" y="140.9" fill="#803FF4" width="0.7" height="2.5"/>
		<rect x="143.6" y="-60.5" fill="#803FF4" width="0.7" height="2.5"/>
		<rect x="143.6" y="-6.8" fill="#803FF4" width="0.7" height="5"/>
		<rect x="143.6" y="-13.8" fill="#803FF4" width="0.7" height="5"/>
		<rect x="143.6" y="7.3" fill="#803FF4" width="0.7" height="5"/>
		<rect x="143.6" y="28.4" fill="#803FF4" width="0.7" height="5"/>
		<rect x="143.6" y="-20.8" fill="#803FF4" width="0.7" height="5"/>
		<rect x="143.6" y="14.3" fill="#803FF4" width="0.7" height="5"/>
		<rect x="143.6" y="21.4" fill="#803FF4" width="0.7" height="5"/>
		<rect x="143.6" y="-49" fill="#803FF4" width="0.7" height="5"/>
		<rect x="143.6" y="-27.9" fill="#803FF4" width="0.7" height="5"/>
		<rect x="143.6" y="35.4" fill="#803FF4" width="0.7" height="5"/>
		<rect x="143.6" y="-56" fill="#803FF4" width="0.7" height="5"/>
		<rect x="143.6" y="-41.9" fill="#803FF4" width="0.7" height="5"/>
		<rect x="143.6" y="-34.9" fill="#803FF4" width="0.7" height="5"/>
		<rect x="143.6" y="0.3" fill="#803FF4" width="0.7" height="5"/>
		<rect x="143.6" y="105.8" fill="#803FF4" width="0.7" height="5"/>
		<rect x="143.6" y="91.7" fill="#803FF4" width="0.7" height="5"/>
		<rect x="143.6" y="98.7" fill="#803FF4" width="0.7" height="5"/>
		<rect x="143.6" y="112.8" fill="#803FF4" width="0.7" height="5"/>
		<rect x="143.6" y="119.8" fill="#803FF4" width="0.7" height="5"/>
		<rect x="143.6" y="133.9" fill="#803FF4" width="0.7" height="5"/>
		<rect x="143.6" y="126.9" fill="#803FF4" width="0.7" height="5"/>
		<rect x="143.6" y="42.5" fill="#803FF4" width="0.7" height="5"/>
		<rect x="143.6" y="84.7" fill="#803FF4" width="0.7" height="5"/>
		<rect x="143.6" y="49.5" fill="#803FF4" width="0.7" height="5"/>
		<rect x="143.6" y="63.6" fill="#803FF4" width="0.7" height="5"/>
		<rect x="143.6" y="56.5" fill="#803FF4" width="0.7" height="5"/>
		<rect x="143.6" y="70.6" fill="#803FF4" width="0.7" height="5"/>
		<rect x="143.6" y="77.6" fill="#803FF4" width="0.7" height="5"/>
		<rect x="143.6" y="140.9" fill="#803FF4" width="0.7" height="2.5"/>
		<rect x="215.6" y="-60.5" fill="#803FF4" width="0.7" height="2.5"/>
		<rect x="215.6" y="-13.8" fill="#803FF4" width="0.7" height="5"/>
		<rect x="215.6" y="0.3" fill="#803FF4" width="0.7" height="5"/>
		<rect x="215.6" y="35.4" fill="#803FF4" width="0.7" height="5"/>
		<rect x="215.6" y="28.4" fill="#803FF4" width="0.7" height="5"/>
		<rect x="215.6" y="14.3" fill="#803FF4" width="0.7" height="5"/>
		<rect x="215.6" y="21.4" fill="#803FF4" width="0.7" height="5"/>
		<rect x="215.6" y="7.3" fill="#803FF4" width="0.7" height="5"/>
		<rect x="215.6" y="-49" fill="#803FF4" width="0.7" height="5"/>
		<rect x="215.6" y="-41.9" fill="#803FF4" width="0.7" height="5"/>
		<rect x="215.6" y="-56" fill="#803FF4" width="0.7" height="5"/>
		<rect x="215.6" y="-34.9" fill="#803FF4" width="0.7" height="5"/>
		<rect x="215.6" y="-20.8" fill="#803FF4" width="0.7" height="5"/>
		<rect x="215.6" y="-27.9" fill="#803FF4" width="0.7" height="5"/>
		<rect x="215.6" y="-6.8" fill="#803FF4" width="0.7" height="5"/>
		<rect x="215.6" y="112.8" fill="#803FF4" width="0.7" height="5"/>
		<rect x="215.6" y="105.8" fill="#803FF4" width="0.7" height="5"/>
		<rect x="215.6" y="98.7" fill="#803FF4" width="0.7" height="5"/>
		<rect x="215.6" y="91.7" fill="#803FF4" width="0.7" height="5"/>
		<rect x="215.6" y="133.9" fill="#803FF4" width="0.7" height="5"/>
		<rect x="215.6" y="119.8" fill="#803FF4" width="0.7" height="5"/>
		<rect x="215.6" y="126.9" fill="#803FF4" width="0.7" height="5"/>
		<rect x="215.6" y="84.7" fill="#803FF4" width="0.7" height="5"/>
		<rect x="215.6" y="63.6" fill="#803FF4" width="0.7" height="5"/>
		<rect x="215.6" y="56.5" fill="#803FF4" width="0.7" height="5"/>
		<rect x="215.6" y="49.5" fill="#803FF4" width="0.7" height="5"/>
		<rect x="215.6" y="70.6" fill="#803FF4" width="0.7" height="5"/>
		<rect x="215.6" y="77.6" fill="#803FF4" width="0.7" height="5"/>
		<rect x="215.6" y="42.5" fill="#803FF4" width="0.7" height="5"/>
		<rect x="215.6" y="140.9" fill="#803FF4" width="0.7" height="2.5"/>
		<rect x="287.6" y="-60.5" fill="#803FF4" width="0.7" height="2.5"/>
		<rect x="287.6" y="70.6" fill="#803FF4" width="0.7" height="5"/>
		<rect x="287.6" y="42.5" fill="#803FF4" width="0.7" height="5"/>
		<rect x="287.6" y="84.7" fill="#803FF4" width="0.7" height="5"/>
		<rect x="287.6" y="49.5" fill="#803FF4" width="0.7" height="5"/>
		<rect x="287.6" y="63.6" fill="#803FF4" width="0.7" height="5"/>
		<rect x="287.6" y="91.7" fill="#803FF4" width="0.7" height="5"/>
		<rect x="287.6" y="56.5" fill="#803FF4" width="0.7" height="5"/>
		<rect x="287.6" y="119.8" fill="#803FF4" width="0.7" height="5"/>
		<rect x="287.6" y="126.9" fill="#803FF4" width="0.7" height="5"/>
		<rect x="287.6" y="133.9" fill="#803FF4" width="0.7" height="5"/>
		<rect x="287.6" y="98.7" fill="#803FF4" width="0.7" height="5"/>
		<rect x="287.6" y="105.8" fill="#803FF4" width="0.7" height="5"/>
		<rect x="287.6" y="112.8" fill="#803FF4" width="0.7" height="5"/>
		<rect x="287.6" y="77.6" fill="#803FF4" width="0.7" height="5"/>
		<rect x="287.6" y="35.4" fill="#803FF4" width="0.7" height="5"/>
		<rect x="287.6" y="-34.9" fill="#803FF4" width="0.7" height="5"/>
		<rect x="287.6" y="-20.8" fill="#803FF4" width="0.7" height="5"/>
		<rect x="287.6" y="-27.9" fill="#803FF4" width="0.7" height="5"/>
		<rect x="287.6" y="-56" fill="#803FF4" width="0.7" height="5"/>
		<rect x="287.6" y="-41.9" fill="#803FF4" width="0.7" height="5"/>
		<rect x="287.6" y="-49" fill="#803FF4" width="0.7" height="5"/>
		<rect x="287.6" y="-13.8" fill="#803FF4" width="0.7" height="5"/>
		<rect x="287.6" y="14.3" fill="#803FF4" width="0.7" height="5"/>
		<rect x="287.6" y="21.4" fill="#803FF4" width="0.7" height="5"/>
		<rect x="287.6" y="28.4" fill="#803FF4" width="0.7" height="5"/>
		<rect x="287.6" y="0.3" fill="#803FF4" width="0.7" height="5"/>
		<rect x="287.6" y="7.3" fill="#803FF4" width="0.7" height="5"/>
		<rect x="287.6" y="-6.8" fill="#803FF4" width="0.7" height="5"/>
		<rect x="287.6" y="140.9" fill="#803FF4" width="0.7" height="2.5"/>
		<rect x="359.7" y="-60.5" fill="#803FF4" width="0.7" height="2.5"/>
		<rect x="359.7" y="7.3" fill="#803FF4" width="0.7" height="5"/>
		<rect x="359.7" y="0.3" fill="#803FF4" width="0.7" height="5"/>
		<rect x="359.7" y="14.3" fill="#803FF4" width="0.7" height="5"/>
		<rect x="359.7" y="-6.8" fill="#803FF4" width="0.7" height="5"/>
		<rect x="359.7" y="28.4" fill="#803FF4" width="0.7" height="5"/>
		<rect x="359.7" y="21.4" fill="#803FF4" width="0.7" height="5"/>
		<rect x="359.7" y="-27.9" fill="#803FF4" width="0.7" height="5"/>
		<rect x="359.7" y="-41.9" fill="#803FF4" width="0.7" height="5"/>
		<rect x="359.7" y="-13.8" fill="#803FF4" width="0.7" height="5"/>
		<rect x="359.7" y="-34.9" fill="#803FF4" width="0.7" height="5"/>
		<rect x="359.7" y="-49" fill="#803FF4" width="0.7" height="5"/>
		<rect x="359.7" y="-20.8" fill="#803FF4" width="0.7" height="5"/>
		<rect x="359.7" y="35.4" fill="#803FF4" width="0.7" height="5"/>
		<rect x="359.7" y="-56" fill="#803FF4" width="0.7" height="5"/>
		<rect x="359.7" y="105.8" fill="#803FF4" width="0.7" height="5"/>
		<rect x="359.7" y="112.8" fill="#803FF4" width="0.7" height="5"/>
		<rect x="359.7" y="98.7" fill="#803FF4" width="0.7" height="5"/>
		<rect x="359.7" y="91.7" fill="#803FF4" width="0.7" height="5"/>
		<rect x="359.7" y="119.8" fill="#803FF4" width="0.7" height="5"/>
		<rect x="359.7" y="42.5" fill="#803FF4" width="0.7" height="5"/>
		<rect x="359.7" y="126.9" fill="#803FF4" width="0.7" height="5"/>
		<rect x="359.7" y="133.9" fill="#803FF4" width="0.7" height="5"/>
		<rect x="359.7" y="56.5" fill="#803FF4" width="0.7" height="5"/>
		<rect x="359.7" y="63.6" fill="#803FF4" width="0.7" height="5"/>
		<rect x="359.7" y="84.7" fill="#803FF4" width="0.7" height="5"/>
		<rect x="359.7" y="49.5" fill="#803FF4" width="0.7" height="5"/>
		<rect x="359.7" y="77.6" fill="#803FF4" width="0.7" height="5"/>
		<rect x="359.7" y="70.6" fill="#803FF4" width="0.7" height="5"/>
		<rect x="359.7" y="140.9" fill="#803FF4" width="0.7" height="2.5"/>
		<rect x="431.7" y="-60.5" fill="#803FF4" width="0.7" height="2.5"/>
		<rect x="431.7" y="0.3" fill="#803FF4" width="0.7" height="5"/>
		<rect x="431.7" y="-6.8" fill="#803FF4" width="0.7" height="5"/>
		<rect x="431.7" y="14.3" fill="#803FF4" width="0.7" height="5"/>
		<rect x="431.7" y="-13.8" fill="#803FF4" width="0.7" height="5"/>
		<rect x="431.7" y="28.4" fill="#803FF4" width="0.7" height="5"/>
		<rect x="431.7" y="21.4" fill="#803FF4" width="0.7" height="5"/>
		<rect x="431.7" y="35.4" fill="#803FF4" width="0.7" height="5"/>
		<rect x="431.7" y="-20.8" fill="#803FF4" width="0.7" height="5"/>
		<rect x="431.7" y="-41.9" fill="#803FF4" width="0.7" height="5"/>
		<rect x="431.7" y="-56" fill="#803FF4" width="0.7" height="5"/>
		<rect x="431.7" y="-49" fill="#803FF4" width="0.7" height="5"/>
		<rect x="431.7" y="-34.9" fill="#803FF4" width="0.7" height="5"/>
		<rect x="431.7" y="-27.9" fill="#803FF4" width="0.7" height="5"/>
		<rect x="431.7" y="7.3" fill="#803FF4" width="0.7" height="5"/>
		<rect x="431.7" y="112.8" fill="#803FF4" width="0.7" height="5"/>
		<rect x="431.7" y="105.8" fill="#803FF4" width="0.7" height="5"/>
		<rect x="431.7" y="98.7" fill="#803FF4" width="0.7" height="5"/>
		<rect x="431.7" y="119.8" fill="#803FF4" width="0.7" height="5"/>
		<rect x="431.7" y="42.5" fill="#803FF4" width="0.7" height="5"/>
		<rect x="431.7" y="126.9" fill="#803FF4" width="0.7" height="5"/>
		<rect x="431.7" y="133.9" fill="#803FF4" width="0.7" height="5"/>
		<rect x="431.7" y="63.6" fill="#803FF4" width="0.7" height="5"/>
		<rect x="431.7" y="56.5" fill="#803FF4" width="0.7" height="5"/>
		<rect x="431.7" y="49.5" fill="#803FF4" width="0.7" height="5"/>
		<rect x="431.7" y="70.6" fill="#803FF4" width="0.7" height="5"/>
		<rect x="431.7" y="77.6" fill="#803FF4" width="0.7" height="5"/>
		<rect x="431.7" y="84.7" fill="#803FF4" width="0.7" height="5"/>
		<rect x="431.7" y="91.7" fill="#803FF4" width="0.7" height="5"/>
		<rect x="431.7" y="140.9" fill="#803FF4" width="0.7" height="2.5"/>
		<rect x="503.7" y="-60.5" fill="#803FF4" width="0.7" height="2.5"/>
		<rect x="503.7" y="0.3" fill="#803FF4" width="0.7" height="5"/>
		<rect x="503.7" y="-6.8" fill="#803FF4" width="0.7" height="5"/>
		<rect x="503.7" y="-13.8" fill="#803FF4" width="0.7" height="5"/>
		<rect x="503.7" y="7.3" fill="#803FF4" width="0.7" height="5"/>
		<rect x="503.7" y="28.4" fill="#803FF4" width="0.7" height="5"/>
		<rect x="503.7" y="14.3" fill="#803FF4" width="0.7" height="5"/>
		<rect x="503.7" y="21.4" fill="#803FF4" width="0.7" height="5"/>
		<rect x="503.7" y="-41.9" fill="#803FF4" width="0.7" height="5"/>
		<rect x="503.7" y="-20.8" fill="#803FF4" width="0.7" height="5"/>
		<rect x="503.7" y="-56" fill="#803FF4" width="0.7" height="5"/>
		<rect x="503.7" y="35.4" fill="#803FF4" width="0.7" height="5"/>
		<rect x="503.7" y="-49" fill="#803FF4" width="0.7" height="5"/>
		<rect x="503.7" y="-27.9" fill="#803FF4" width="0.7" height="5"/>
		<rect x="503.7" y="-34.9" fill="#803FF4" width="0.7" height="5"/>
		<rect x="503.7" y="105.8" fill="#803FF4" width="0.7" height="5"/>
		<rect x="503.7" y="42.5" fill="#803FF4" width="0.7" height="5"/>
		<rect x="503.7" y="91.7" fill="#803FF4" width="0.7" height="5"/>
		<rect x="503.7" y="98.7" fill="#803FF4" width="0.7" height="5"/>
		<rect x="503.7" y="119.8" fill="#803FF4" width="0.7" height="5"/>
		<rect x="503.7" y="133.9" fill="#803FF4" width="0.7" height="5"/>
		<rect x="503.7" y="126.9" fill="#803FF4" width="0.7" height="5"/>
		<rect x="503.7" y="112.8" fill="#803FF4" width="0.7" height="5"/>
		<rect x="503.7" y="63.6" fill="#803FF4" width="0.7" height="5"/>
		<rect x="503.7" y="56.5" fill="#803FF4" width="0.7" height="5"/>
		<rect x="503.7" y="49.5" fill="#803FF4" width="0.7" height="5"/>
		<rect x="503.7" y="77.6" fill="#803FF4" width="0.7" height="5"/>
		<rect x="503.7" y="84.7" fill="#803FF4" width="0.7" height="5"/>
		<rect x="503.7" y="70.6" fill="#803FF4" width="0.7" height="5"/>
		<rect x="503.7" y="140.9" fill="#803FF4" width="0.7" height="2.5"/>
	</g>
</g>
</svg>
